<svg width="27" height="27" viewBox="0 0 27 27" fill="none" xmlns="http://www.w3.org/2000/svg">
<path d="M17.9298 19.3565L13.9165 15.3431C13.7698 15.1965 13.5965 15.1698 13.5032 15.1698C13.4098 15.1698 13.2365 15.1965 13.0898 15.3431L9.06315 19.3698C8.60982 19.8231 7.90315 20.5565 5.54315 20.5565L10.4898 25.4898C11.2398 26.2389 12.2565 26.6596 13.3165 26.6596C14.3765 26.6596 15.3931 26.2389 16.1432 25.4898L21.1032 20.5431C19.8898 20.5431 18.8765 20.3031 17.9298 19.3565ZM9.06315 7.28981L13.0898 11.3165C13.1965 11.4231 13.3565 11.4898 13.5032 11.4898C13.6498 11.4898 13.8098 11.4231 13.9165 11.3165L17.9032 7.32981C18.8498 6.34315 19.9298 6.11648 21.1432 6.11648L16.1832 1.16981C15.4332 0.420745 14.4165 0 13.3565 0C12.2965 0 11.2798 0.420745 10.5298 1.16981L5.58315 6.10315C7.92982 6.10315 8.64982 6.87648 9.06315 7.28981Z" fill="white"/>
<path d="M25.4765 10.4631L22.4765 7.44976H20.7965C20.0765 7.44976 19.3565 7.7431 18.8631 8.2631L14.8631 12.2631C14.4898 12.6364 13.9965 12.8231 13.5031 12.8231C12.9951 12.8159 12.5089 12.6157 12.1431 12.2631L8.11648 8.2231C7.60981 7.71643 6.91648 7.4231 6.18315 7.4231H4.22315L1.16981 10.4898C0.420745 11.2398 0 12.2564 0 13.3164C0 14.3764 0.420745 15.3931 1.16981 16.1431L4.22315 19.2098H6.19648C6.91648 19.2098 7.60981 18.9164 8.12981 18.4098L12.1565 14.3831C12.5298 14.0098 13.0231 13.8231 13.5165 13.8231C14.0098 13.8231 14.5031 14.0098 14.8765 14.3831L18.8898 18.3964C19.3965 18.9031 20.0898 19.1964 20.8231 19.1964H22.5031L25.5031 16.1831C26.256 15.4199 26.6759 14.3896 26.6709 13.3176C26.6659 12.2456 26.2364 11.2192 25.4765 10.4631Z" fill="white"/>
</svg>
